<svg width="640" height="441" viewBox="0 0 640 441" fill="none" xmlns="http://www.w3.org/2000/svg">
<rect width="640" height="441" fill="white"/>
<g filter="url(#filter0_d_5032_19)">
<path d="M403.622 24H236.378C233.408 24 231 25.8464 231 28.1241V132.876C231 135.154 233.408 137 236.378 137H403.622C406.592 137 409 135.154 409 132.876V28.1241C409 25.8464 406.592 24 403.622 24Z" fill="#ECF3F4"/>
</g>
<g filter="url(#filter1_d_5032_19)">
<path d="M198.622 24H31.3776C28.4077 24 26 25.8464 26 28.1241V132.876C26 135.154 28.4077 137 31.3776 137H198.622C201.592 137 204 135.154 204 132.876V28.1241C204 25.8464 201.592 24 198.622 24Z" fill="#ECF3F4"/>
</g>
<g filter="url(#filter2_d_5032_19)">
<path d="M608.622 24H441.378C438.408 24 436 25.8464 436 28.1241V132.876C436 135.154 438.408 137 441.378 137H608.622C611.592 137 614 135.154 614 132.876V28.1241C614 25.8464 611.592 24 608.622 24Z" fill="#ECF3F4"/>
</g>
<g filter="url(#filter3_d_5032_19)">
<path d="M403.622 164H236.378C233.408 164 231 165.846 231 168.124V272.876C231 275.154 233.408 277 236.378 277H403.622C406.592 277 409 275.154 409 272.876V168.124C409 165.846 406.592 164 403.622 164Z" fill="#ECF3F4"/>
</g>
<g filter="url(#filter4_d_5032_19)">
<path d="M198.622 164H31.3776C28.4077 164 26 165.846 26 168.124V272.876C26 275.154 28.4077 277 31.3776 277H198.622C201.592 277 204 275.154 204 272.876V168.124C204 165.846 201.592 164 198.622 164Z" fill="#ECF3F4"/>
</g>
<g filter="url(#filter5_d_5032_19)">
<path d="M608.622 164H441.378C438.408 164 436 165.846 436 168.124V272.876C436 275.154 438.408 277 441.378 277H608.622C611.592 277 614 275.154 614 272.876V168.124C614 165.846 611.592 164 608.622 164Z" fill="#ECF3F4"/>
</g>
<g filter="url(#filter6_d_5032_19)">
<path d="M403.622 304H236.378C233.408 304 231 305.846 231 308.124V412.876C231 415.154 233.408 417 236.378 417H403.622C406.592 417 409 415.154 409 412.876V308.124C409 305.846 406.592 304 403.622 304Z" fill="#ECF3F4"/>
</g>
<g filter="url(#filter7_d_5032_19)">
<path d="M198.622 304H31.3776C28.4077 304 26 305.846 26 308.124V412.876C26 415.154 28.4077 417 31.3776 417H198.622C201.592 417 204 415.154 204 412.876V308.124C204 305.846 201.592 304 198.622 304Z" fill="#ECF3F4"/>
</g>
<g filter="url(#filter8_d_5032_19)">
<path d="M608.622 304H441.378C438.408 304 436 305.846 436 308.124V412.876C436 415.154 438.408 417 441.378 417H608.622C611.592 417 614 415.154 614 412.876V308.124C614 305.846 611.592 304 608.622 304Z" fill="#ECF3F4"/>
</g>
<defs>
<filter id="filter0_d_5032_19" x="227" y="24" width="186" height="121" filterUnits="userSpaceOnUse" color-interpolation-filters="sRGB">
<feFlood flood-opacity="0" result="BackgroundImageFix"/>
<feColorMatrix in="SourceAlpha" type="matrix" values="0 0 0 0 0 0 0 0 0 0 0 0 0 0 0 0 0 0 127 0" result="hardAlpha"/>
<feOffset dy="4"/>
<feGaussianBlur stdDeviation="2"/>
<feComposite in2="hardAlpha" operator="out"/>
<feColorMatrix type="matrix" values="0 0 0 0 0 0 0 0 0 0 0 0 0 0 0 0 0 0 0.25 0"/>
<feBlend mode="normal" in2="BackgroundImageFix" result="effect1_dropShadow_5032_19"/>
<feBlend mode="normal" in="SourceGraphic" in2="effect1_dropShadow_5032_19" result="shape"/>
</filter>
<filter id="filter1_d_5032_19" x="22" y="24" width="186" height="121" filterUnits="userSpaceOnUse" color-interpolation-filters="sRGB">
<feFlood flood-opacity="0" result="BackgroundImageFix"/>
<feColorMatrix in="SourceAlpha" type="matrix" values="0 0 0 0 0 0 0 0 0 0 0 0 0 0 0 0 0 0 127 0" result="hardAlpha"/>
<feOffset dy="4"/>
<feGaussianBlur stdDeviation="2"/>
<feComposite in2="hardAlpha" operator="out"/>
<feColorMatrix type="matrix" values="0 0 0 0 0 0 0 0 0 0 0 0 0 0 0 0 0 0 0.25 0"/>
<feBlend mode="normal" in2="BackgroundImageFix" result="effect1_dropShadow_5032_19"/>
<feBlend mode="normal" in="SourceGraphic" in2="effect1_dropShadow_5032_19" result="shape"/>
</filter>
<filter id="filter2_d_5032_19" x="432" y="24" width="186" height="121" filterUnits="userSpaceOnUse" color-interpolation-filters="sRGB">
<feFlood flood-opacity="0" result="BackgroundImageFix"/>
<feColorMatrix in="SourceAlpha" type="matrix" values="0 0 0 0 0 0 0 0 0 0 0 0 0 0 0 0 0 0 127 0" result="hardAlpha"/>
<feOffset dy="4"/>
<feGaussianBlur stdDeviation="2"/>
<feComposite in2="hardAlpha" operator="out"/>
<feColorMatrix type="matrix" values="0 0 0 0 0 0 0 0 0 0 0 0 0 0 0 0 0 0 0.25 0"/>
<feBlend mode="normal" in2="BackgroundImageFix" result="effect1_dropShadow_5032_19"/>
<feBlend mode="normal" in="SourceGraphic" in2="effect1_dropShadow_5032_19" result="shape"/>
</filter>
<filter id="filter3_d_5032_19" x="227" y="164" width="186" height="121" filterUnits="userSpaceOnUse" color-interpolation-filters="sRGB">
<feFlood flood-opacity="0" result="BackgroundImageFix"/>
<feColorMatrix in="SourceAlpha" type="matrix" values="0 0 0 0 0 0 0 0 0 0 0 0 0 0 0 0 0 0 127 0" result="hardAlpha"/>
<feOffset dy="4"/>
<feGaussianBlur stdDeviation="2"/>
<feComposite in2="hardAlpha" operator="out"/>
<feColorMatrix type="matrix" values="0 0 0 0 0 0 0 0 0 0 0 0 0 0 0 0 0 0 0.25 0"/>
<feBlend mode="normal" in2="BackgroundImageFix" result="effect1_dropShadow_5032_19"/>
<feBlend mode="normal" in="SourceGraphic" in2="effect1_dropShadow_5032_19" result="shape"/>
</filter>
<filter id="filter4_d_5032_19" x="22" y="164" width="186" height="121" filterUnits="userSpaceOnUse" color-interpolation-filters="sRGB">
<feFlood flood-opacity="0" result="BackgroundImageFix"/>
<feColorMatrix in="SourceAlpha" type="matrix" values="0 0 0 0 0 0 0 0 0 0 0 0 0 0 0 0 0 0 127 0" result="hardAlpha"/>
<feOffset dy="4"/>
<feGaussianBlur stdDeviation="2"/>
<feComposite in2="hardAlpha" operator="out"/>
<feColorMatrix type="matrix" values="0 0 0 0 0 0 0 0 0 0 0 0 0 0 0 0 0 0 0.25 0"/>
<feBlend mode="normal" in2="BackgroundImageFix" result="effect1_dropShadow_5032_19"/>
<feBlend mode="normal" in="SourceGraphic" in2="effect1_dropShadow_5032_19" result="shape"/>
</filter>
<filter id="filter5_d_5032_19" x="432" y="164" width="186" height="121" filterUnits="userSpaceOnUse" color-interpolation-filters="sRGB">
<feFlood flood-opacity="0" result="BackgroundImageFix"/>
<feColorMatrix in="SourceAlpha" type="matrix" values="0 0 0 0 0 0 0 0 0 0 0 0 0 0 0 0 0 0 127 0" result="hardAlpha"/>
<feOffset dy="4"/>
<feGaussianBlur stdDeviation="2"/>
<feComposite in2="hardAlpha" operator="out"/>
<feColorMatrix type="matrix" values="0 0 0 0 0 0 0 0 0 0 0 0 0 0 0 0 0 0 0.25 0"/>
<feBlend mode="normal" in2="BackgroundImageFix" result="effect1_dropShadow_5032_19"/>
<feBlend mode="normal" in="SourceGraphic" in2="effect1_dropShadow_5032_19" result="shape"/>
</filter>
<filter id="filter6_d_5032_19" x="227" y="304" width="186" height="121" filterUnits="userSpaceOnUse" color-interpolation-filters="sRGB">
<feFlood flood-opacity="0" result="BackgroundImageFix"/>
<feColorMatrix in="SourceAlpha" type="matrix" values="0 0 0 0 0 0 0 0 0 0 0 0 0 0 0 0 0 0 127 0" result="hardAlpha"/>
<feOffset dy="4"/>
<feGaussianBlur stdDeviation="2"/>
<feComposite in2="hardAlpha" operator="out"/>
<feColorMatrix type="matrix" values="0 0 0 0 0 0 0 0 0 0 0 0 0 0 0 0 0 0 0.25 0"/>
<feBlend mode="normal" in2="BackgroundImageFix" result="effect1_dropShadow_5032_19"/>
<feBlend mode="normal" in="SourceGraphic" in2="effect1_dropShadow_5032_19" result="shape"/>
</filter>
<filter id="filter7_d_5032_19" x="22" y="304" width="186" height="121" filterUnits="userSpaceOnUse" color-interpolation-filters="sRGB">
<feFlood flood-opacity="0" result="BackgroundImageFix"/>
<feColorMatrix in="SourceAlpha" type="matrix" values="0 0 0 0 0 0 0 0 0 0 0 0 0 0 0 0 0 0 127 0" result="hardAlpha"/>
<feOffset dy="4"/>
<feGaussianBlur stdDeviation="2"/>
<feComposite in2="hardAlpha" operator="out"/>
<feColorMatrix type="matrix" values="0 0 0 0 0 0 0 0 0 0 0 0 0 0 0 0 0 0 0.25 0"/>
<feBlend mode="normal" in2="BackgroundImageFix" result="effect1_dropShadow_5032_19"/>
<feBlend mode="normal" in="SourceGraphic" in2="effect1_dropShadow_5032_19" result="shape"/>
</filter>
<filter id="filter8_d_5032_19" x="432" y="304" width="186" height="121" filterUnits="userSpaceOnUse" color-interpolation-filters="sRGB">
<feFlood flood-opacity="0" result="BackgroundImageFix"/>
<feColorMatrix in="SourceAlpha" type="matrix" values="0 0 0 0 0 0 0 0 0 0 0 0 0 0 0 0 0 0 127 0" result="hardAlpha"/>
<feOffset dy="4"/>
<feGaussianBlur stdDeviation="2"/>
<feComposite in2="hardAlpha" operator="out"/>
<feColorMatrix type="matrix" values="0 0 0 0 0 0 0 0 0 0 0 0 0 0 0 0 0 0 0.25 0"/>
<feBlend mode="normal" in2="BackgroundImageFix" result="effect1_dropShadow_5032_19"/>
<feBlend mode="normal" in="SourceGraphic" in2="effect1_dropShadow_5032_19" result="shape"/>
</filter>
</defs>
</svg>
